Coordinates
version=1
nRows=4
nColumns=107
inDegrees=yes

Units are S.I. units (second, meters, Newtons, ...)
If the header above contains a line with 'inDegrees', this indicates whether rotational values are in degrees (yes) or radians (no).

endheader
time	sternoclavicular_r2	sternoclavicular_r3	unrotscap_r3	unrotscap_r2	acromioclavicular_r2	acromioclavicular_r3	acromioclavicular_r1	unrothum_r1	unrothum_r3	unrothum_r2	elv_angle	shoulder_elv	shoulder1_r2	shoulder_rot	elbow_flexion	pro_sup	deviation	flexion	proximal_distal_r1	proximal_distal_r3	cmc_flexion	cmc_abduction	mp_flexion	ip_flexion	mcp2_flexion	mcp2_abduction	pm2_flexion	md2_flexion	mcp3_flexion	mcp3_abduction	pm3_flexion	md3_flexion	mcp4_flexion	mcp4_abduction	pm4_flexion	md4_flexion	mcp5_flexion	mcp5_abduction	pm5_flexion	md5_flexion	bicpt_tx	bicpt_ty	bicpt_tz	bicpt2_tx	bicpt2_ty	bicpt2_tz	ptpt_tx	ptpt_ty	ptpt_tz	FCUpt_tx	FCUpt_ty	FCUpt_tz	EDCpt_tx	EDCpt_ty	EDCpt_tz	APLpt_tx	APLpt_ty	APLpt_tz	FPLpt_tx	FPLpt_ty	FPLpt_tz	FPLpt2_tx	FPLpt2_ty	FPLpt2_tz	PEC1pt2_tx	PEC1pt2_ty	PEC1pt2_tz	PEC1pt3_tx	PEC1pt3_ty	PEC1pt3_tz	PEC2pt2_tx	PEC2pt2_ty	PEC2pt2_tz	PEC2pt3_tx	PEC2pt3_ty	PEC2pt3_tz	PEC3pt2_tx	PEC3pt2_ty	PEC3pt2_tz	PEC3pt3_tx	PEC3pt3_ty	PEC3pt3_tz	DELT2pt2a_tx	DELT2pt2a_ty	DELT2pt2a_tz	DELT2pt2_tx	DELT2pt2_ty	DELT2pt2_tz	LAT1pt2_tx	LAT1pt2_ty	LAT1pt2_tz	LAT1pt3_tx	LAT1pt3_ty	LAT1pt3_tz	LAT2pt2_tx	LAT2pt2_ty	LAT2pt2_tz	LAT2pt3_tx	LAT2pt3_ty	LAT2pt3_tz	LAT3pt2_tx	LAT3pt2_ty	LAT3pt2_tz	LAT3pt3_tx	LAT3pt3_ty	LAT3pt3_tz
      0.56666667	     -0.32611555	      0.13812716	     -0.13812716	      0.32611555	     -0.06603177	      0.53364551	      0.23986998	     -0.23986998	     -0.53364551	      0.06603177	     98.33196654	     77.21075629	     -1.71621658	    -17.16721462	     26.89618641	     11.53103669	     -0.07830957	     -0.36694147	     -0.11129600	     -0.18347074	     17.51233692	     23.67331559	     19.65730916	      6.87414830	      2.89076948	     14.38827587	      3.85454960	    -39.90519540	    -31.79631736	      6.96062706	      5.27635270	      8.52038402	    -40.66596835	     -5.78289882	    -10.02350220	     15.07214538	    -56.88196878	    -14.59384637	    -14.49462440	      4.83304670	      0.00078964	     -0.03068271	     -0.00479654	      0.01559413	     -0.01750648	     -0.00994095	      0.00669799	     -0.06545093	     -0.00097889	      0.00503909	     -0.18397222	      0.00012086	     -0.00138372	      0.00034723	      0.00013117	      0.00026267	      0.00010507	      0.00052535	      0.00033622	      0.00100867	      0.00056737	      0.00001793	     -0.00026743	     -0.00032092	      0.00253080	      0.00887924	      0.00617687	     -0.00827872	      0.01998902	     -0.01895955	      0.00253080	      0.00887924	      0.00617687	      0.00055763	      0.01853060	     -0.00973714	      0.00398725	      0.00493764	      0.01606294	      0.00000000	      0.00797424	      0.00000000	     -0.00724924	     -0.03350092	     -0.00657620	      0.01208792	     -0.00034657	     -0.00237957	     -0.00090079	      0.01509901	     -0.00617687	      0.00248790	      0.02179061	     -0.01801586	     -0.00604818	      0.01308294	     -0.00553344	     -0.01261110	      0.02762432	     -0.03092722	     -0.02367799	      0.01462716	     -0.00742082	     -0.01569953	      0.03191381	     -0.03864831
      0.60000000	     -0.32351836	      0.13702711	     -0.13702711	      0.32351836	     -0.06550589	      0.52939554	      0.23795965	     -0.23795965	     -0.52939554	      0.06550589	     98.86817059	     76.59584800	     -1.72557510	    -20.38535710	     27.05325241	     14.96939668	     -0.08043622	     -0.34562187	     -0.11445880	     -0.17281094	     17.61041436	     23.67483939	     19.92376855	      6.27381400	      2.96571472	     14.38683655	      3.83536765	    -40.68974045	    -31.58173286	      6.90570114	      5.13034495	      8.71140935	    -40.29973515	     -5.71516767	    -10.49740732	     16.00029246	    -56.62274592	    -14.59368816	    -14.41384703	      4.82625474	      0.00079484	     -0.03070072	     -0.00479944	      0.01581097	     -0.01754915	     -0.00970286	      0.00644393	     -0.06561520	     -0.00125587	      0.00535687	     -0.18392681	      0.00002718	     -0.00179632	      0.00045871	      0.00015633	      0.00025358	      0.00010143	      0.00050717	      0.00032459	      0.00097376	      0.00054774	      0.00001769	     -0.00026797	     -0.00032157	      0.00251064	      0.00880853	      0.00612767	     -0.00821278	      0.01982983	     -0.01880855	      0.00251064	      0.00880853	      0.00612767	      0.00055319	      0.01838302	     -0.00965960	      0.00396414	      0.00489831	      0.01600711	      0.00000000	      0.00784683	      0.00000000	     -0.00719151	     -0.03323412	     -0.00647045	      0.01399763	     -0.00044380	     -0.00343313	     -0.00089362	      0.01497876	     -0.00612767	      0.00246809	      0.02161707	     -0.01787238	     -0.00600001	      0.01297875	     -0.00548937	     -0.01251067	      0.02740432	     -0.03068092	     -0.02348941	      0.01451067	     -0.00736172	     -0.01557450	      0.03165964	     -0.03834051
      0.63333333	     -0.32521268	      0.13774474	     -0.13774474	      0.32521268	     -0.06584895	      0.53216807	      0.23920588	     -0.23920588	     -0.53216807	      0.06584895	     98.51823795	     76.99699266	     -1.71946763	    -18.21189850	     26.91221046	     12.87206526	     -0.08089595	     -0.37116536	     -0.11514361	     -0.18558268	     18.05916464	     23.68291064	     19.70897175	      5.43665747	      2.71803172	     14.38178471	      4.01517934	    -39.69963823	    -31.25910634	      6.69799786	      4.90896397	      8.67350297	    -40.17376957	     -5.72310075	    -10.27165081	     16.41446366	    -56.88079392	    -14.59702610	    -13.74285404	      4.75448301	      0.00079017	     -0.03068455	     -0.00479684	      0.01568192	     -0.01751083	     -0.00985006	      0.00659890	     -0.06551500	     -0.00108691	      0.00516260	     -0.18395491	      0.00008326	     -0.00154464	      0.00039028	      0.00014175	      0.00026439	      0.00010575	      0.00052877	      0.00033841	      0.00101524	      0.00057107	      0.00001660	     -0.00027031	     -0.00032437	      0.00252379	      0.00885466	      0.00615976	     -0.00825580	      0.01993368	     -0.01890706	      0.00252379	      0.00885466	      0.00615976	      0.00055609	      0.01847929	     -0.00971018	      0.00397923	      0.00492396	      0.01604363	      0.00000000	      0.00792983	      0.00000000	     -0.00722917	     -0.03340817	     -0.00653934	      0.01272304	     -0.00037766	     -0.00270306	     -0.00089830	      0.01505720	     -0.00615976	      0.00248102	      0.02173028	     -0.01796598	     -0.00603144	      0.01304672	     -0.00551812	     -0.01257619	      0.02754784	     -0.03084160	     -0.02361243	      0.01458666	     -0.00740027	     -0.01565607	      0.03182545	     -0.03854130
      0.66666667	     -0.32585489	      0.13801675	     -0.13801675	      0.32585489	     -0.06597899	      0.53321896	      0.23967825	     -0.23967825	     -0.53321896	      0.06597899	     98.37888393	     77.14904140	     -1.71703544	    -17.51113157	     26.96484492	     12.34532445	     -0.07482492	     -0.36223200	     -0.10613031	     -0.18111600	     17.60576412	     23.66842570	     20.18079639	      6.14454796	      2.73333378	     14.38052048	      3.86831119	    -40.03950742	    -31.40421190	      6.70154746	      5.17334624	      8.53318776	    -39.85670622	     -5.62825351	    -10.83824385	     16.16033311	    -56.47676744	    -14.59264590	    -14.52907303	      4.82537375	      0.00079191	     -0.03069058	     -0.00479781	      0.01564793	     -0.01752513	     -0.00988606	      0.00663782	     -0.06548983	     -0.00104448	      0.00511402	     -0.18396177	      0.00009787	     -0.00148144	      0.00037330	      0.00013771	      0.00026073	      0.00010429	      0.00052146	      0.00033374	      0.00100121	      0.00056318	      0.00001770	     -0.00026794	     -0.00032153	      0.00252878	      0.00887215	      0.00617193	     -0.00827210	      0.01997305	     -0.01894439	      0.00252878	      0.00887215	      0.00617193	      0.00055719	      0.01851579	     -0.00972936	      0.00398494	      0.00493369	      0.01605738	      0.00000000	      0.00796141	      0.00000000	     -0.00724344	     -0.03347414	     -0.00656555	      0.01229862	     -0.00035676	     -0.00248406	     -0.00090007	      0.01508694	     -0.00617193	      0.00248592	      0.02177319	     -0.01800146	     -0.00604335	      0.01307249	     -0.00552902	     -0.01260102	      0.02760224	     -0.03090250	     -0.02365906	      0.01461547	     -0.00741489	     -0.01568699	      0.03188830	     -0.03861741
